<svg width="24" height="24" viewBox="0 0 24 24" fill="none" xmlns="http://www.w3.org/2000/svg">
<path d="M14.3111 12.7911L18.9011 17.3811C19.0874 17.5685 19.1919 17.8219 19.1919 18.0861C19.1919 18.3503 19.0874 18.6038 18.9011 18.7911C18.8081 18.8848 18.6975 18.9592 18.5757 19.01C18.4538 19.0608 18.3231 19.0869 18.1911 19.0869C18.0591 19.0869 17.9284 19.0608 17.8065 19.01C17.6847 18.9592 17.5741 18.8848 17.4811 18.7911L12.9011 14.1911C12.8081 14.0974 12.6975 14.023 12.5757 13.9722C12.4538 13.9215 12.3231 13.8953 12.1911 13.8953C12.0591 13.8953 11.9284 13.9215 11.8065 13.9722C11.6847 14.023 11.5741 14.0974 11.4811 14.1911L6.9011 18.7911C6.71412 18.9794 6.46 19.0857 6.19464 19.0867C5.92927 19.0876 5.6744 18.9831 5.4861 18.7961C5.2978 18.6091 5.19148 18.355 5.19054 18.0897C5.18961 17.8243 5.29412 17.5694 5.4811 17.3811L10.0711 12.7911C10.6336 12.2293 11.3961 11.9138 12.1911 11.9138C12.9861 11.9138 13.7486 12.2293 14.3111 12.7911Z" fill="black"/>
<path d="M14.3111 5.79111L18.9011 10.3811C19.0874 10.5685 19.1919 10.8219 19.1919 11.0861C19.1919 11.3503 19.0874 11.6038 18.9011 11.7911C18.8081 11.8848 18.6975 11.9592 18.5757 12.01C18.4538 12.0608 18.3231 12.0869 18.1911 12.0869C18.0591 12.0869 17.9284 12.0608 17.8065 12.01C17.6847 11.9592 17.5741 11.8848 17.4811 11.7911L12.9011 7.19111C12.8081 7.09739 12.6975 7.02299 12.5757 6.97222C12.4538 6.92145 12.3231 6.89532 12.1911 6.89532C12.0591 6.89532 11.9284 6.92145 11.8065 6.97222C11.6847 7.02299 11.5741 7.09739 11.4811 7.19111L6.9011 11.7911C6.71412 11.9794 6.46 12.0857 6.19464 12.0867C5.92927 12.0876 5.6744 11.9831 5.4861 11.7961C5.2978 11.6091 5.19148 11.355 5.19054 11.0897C5.18961 10.8243 5.29412 10.5694 5.4811 10.3811L10.0711 5.79111C10.6336 5.22931 11.3961 4.91375 12.1911 4.91375C12.9861 4.91375 13.7486 5.22931 14.3111 5.79111Z" fill="black"/>
</svg>
