<svg width="24" height="24" viewBox="0 0 24 24" fill="none" xmlns="http://www.w3.org/2000/svg">
<path d="M14.3111 11.2089L18.9011 6.61889C19.0874 6.43152 19.1919 6.17807 19.1919 5.91388C19.1919 5.6497 19.0874 5.39625 18.9011 5.20888C18.8081 5.11516 18.6975 5.04076 18.5757 4.98999C18.4538 4.93922 18.3231 4.91309 18.1911 4.91309C18.0591 4.91309 17.9284 4.93922 17.8065 4.98999C17.6847 5.04076 17.5741 5.11516 17.4811 5.20888L12.9011 9.80888C12.8081 9.90261 12.6975 9.97701 12.5757 10.0278C12.4538 10.0785 12.3231 10.1047 12.1911 10.1047C12.0591 10.1047 11.9284 10.0785 11.8065 10.0278C11.6847 9.97701 11.5741 9.90261 11.4811 9.80888L6.9011 5.20888C6.71412 5.02058 6.46 4.91427 6.19464 4.91333C5.92927 4.91239 5.6744 5.01691 5.4861 5.20388C5.2978 5.39086 5.19148 5.64498 5.19054 5.91035C5.18961 6.17571 5.29412 6.43058 5.4811 6.61888L10.0711 11.2089C10.6336 11.7707 11.3961 12.0862 12.1911 12.0862C12.9861 12.0862 13.7486 11.7707 14.3111 11.2089Z" fill="black"/>
<path d="M14.3111 18.2089L18.9011 13.6189C19.0874 13.4315 19.1919 13.1781 19.1919 12.9139C19.1919 12.6497 19.0874 12.3962 18.9011 12.2089C18.8081 12.1152 18.6975 12.0408 18.5757 11.99C18.4538 11.9392 18.3231 11.9131 18.1911 11.9131C18.0591 11.9131 17.9284 11.9392 17.8065 11.99C17.6847 12.0408 17.5741 12.1152 17.4811 12.2089L12.9011 16.8089C12.8081 16.9026 12.6975 16.977 12.5757 17.0278C12.4538 17.0785 12.3231 17.1047 12.1911 17.1047C12.0591 17.1047 11.9284 17.0785 11.8065 17.0278C11.6847 16.977 11.5741 16.9026 11.4811 16.8089L6.9011 12.2089C6.71412 12.0206 6.46 11.9143 6.19464 11.9133C5.92927 11.9124 5.6744 12.0169 5.4861 12.2039C5.2978 12.3909 5.19148 12.645 5.19054 12.9103C5.18961 13.1757 5.29412 13.4306 5.4811 13.6189L10.0711 18.2089C10.6336 18.7707 11.3961 19.0862 12.1911 19.0862C12.9861 19.0862 13.7486 18.7707 14.3111 18.2089Z" fill="black"/>
</svg>
