<svg width="24" height="24" viewBox="0 0 24 24" fill="none" xmlns="http://www.w3.org/2000/svg">
<path d="M12.982 9.87982L17.572 5.28982C17.7594 5.10356 18.0128 4.99902 18.277 4.99902C18.5412 4.99902 18.7947 5.10356 18.982 5.28982C19.0758 5.38278 19.1502 5.49338 19.2009 5.61524C19.2517 5.7371 19.2778 5.8678 19.2778 5.99982C19.2778 6.13183 19.2517 6.26253 19.2009 6.38439C19.1502 6.50625 19.0758 6.61685 18.982 6.70982L14.382 11.2898C14.2883 11.3828 14.2139 11.4934 14.1631 11.6152C14.1124 11.7371 14.0862 11.8678 14.0862 11.9998C14.0862 12.1318 14.1124 12.2625 14.1631 12.3844C14.2139 12.5063 14.2883 12.6169 14.382 12.7098L18.982 17.2898C19.1703 17.4768 19.2767 17.7309 19.2776 17.9963C19.2785 18.2616 19.174 18.5165 18.987 18.7048C18.8001 18.8931 18.5459 18.9994 18.2806 19.0004C18.0152 19.0013 17.7603 18.8968 17.572 18.7098L12.982 14.1198C12.4202 13.5573 12.1047 12.7948 12.1047 11.9998C12.1047 11.2048 12.4202 10.4423 12.982 9.87982Z" fill="black"/>
<path d="M5.98203 9.87982L10.572 5.28982C10.7594 5.10356 11.0128 4.99902 11.277 4.99902C11.5412 4.99902 11.7947 5.10356 11.982 5.28982C12.0758 5.38278 12.1502 5.49338 12.2009 5.61524C12.2517 5.7371 12.2778 5.8678 12.2778 5.99982C12.2778 6.13183 12.2517 6.26253 12.2009 6.38439C12.1502 6.50625 12.0758 6.61685 11.982 6.70982L7.38203 11.2898C7.2883 11.3828 7.21391 11.4934 7.16314 11.6152C7.11237 11.7371 7.08623 11.8678 7.08623 11.9998C7.08623 12.1318 7.11237 12.2625 7.16314 12.3844C7.21391 12.5063 7.2883 12.6169 7.38203 12.7098L11.982 17.2898C12.1703 17.4768 12.2767 17.7309 12.2776 17.9963C12.2785 18.2616 12.174 18.5165 11.987 18.7048C11.8001 18.8931 11.5459 18.9994 11.2806 19.0004C11.0152 19.0013 10.7603 18.8968 10.572 18.7098L5.98203 14.1198C5.42023 13.5573 5.10467 12.7948 5.10467 11.9998C5.10467 11.2048 5.42023 10.4423 5.98203 9.87982Z" fill="black"/>
</svg>
