<svg width="24" height="24" viewBox="0 0 24 24" fill="none" xmlns="http://www.w3.org/2000/svg">
<path d="M11.4003 9.87982L6.81029 5.28982C6.62293 5.10356 6.36948 4.99902 6.10529 4.99902C5.8411 4.99902 5.58765 5.10356 5.40029 5.28982C5.30656 5.38278 5.23217 5.49338 5.1814 5.61524C5.13063 5.7371 5.10449 5.8678 5.10449 5.99982C5.10449 6.13183 5.13063 6.26253 5.1814 6.38439C5.23217 6.50625 5.30656 6.61685 5.40029 6.70982L10.0003 11.2898C10.094 11.3828 10.1684 11.4934 10.2192 11.6152C10.27 11.7371 10.2961 11.8678 10.2961 11.9998C10.2961 12.1318 10.27 12.2625 10.2192 12.3844C10.1684 12.5063 10.094 12.6169 10.0003 12.7098L5.40029 17.2898C5.21199 17.4768 5.10567 17.7309 5.10473 17.9963C5.1038 18.2616 5.20831 18.5165 5.39529 18.7048C5.58227 18.8931 5.83639 18.9994 6.10176 19.0004C6.36712 19.0013 6.62199 18.8968 6.81029 18.7098L11.4003 14.1198C11.9621 13.5573 12.2777 12.7948 12.2777 11.9998C12.2777 11.2048 11.9621 10.4423 11.4003 9.87982Z" fill="black"/>
<path d="M18.4003 9.87982L13.8103 5.28982C13.6229 5.10356 13.3695 4.99902 13.1053 4.99902C12.8411 4.99902 12.5877 5.10356 12.4003 5.28982C12.3066 5.38278 12.2322 5.49338 12.1814 5.61524C12.1306 5.7371 12.1045 5.8678 12.1045 5.99982C12.1045 6.13183 12.1306 6.26253 12.1814 6.38439C12.2322 6.50625 12.3066 6.61685 12.4003 6.70982L17.0003 11.2898C17.094 11.3828 17.1684 11.4934 17.2192 11.6152C17.27 11.7371 17.2961 11.8678 17.2961 11.9998C17.2961 12.1318 17.27 12.2625 17.2192 12.3844C17.1684 12.5063 17.094 12.6169 17.0003 12.7098L12.4003 17.2898C12.212 17.4768 12.1057 17.7309 12.1047 17.9963C12.1038 18.2616 12.2083 18.5165 12.3953 18.7048C12.5823 18.8931 12.8364 18.9994 13.1018 19.0004C13.3671 19.0013 13.622 18.8968 13.8103 18.7098L18.4003 14.1198C18.9621 13.5573 19.2777 12.7948 19.2777 11.9998C19.2777 11.2048 18.9621 10.4423 18.4003 9.87982Z" fill="black"/>
</svg>
