<svg width="24" height="24" viewBox="0 0 24 24" fill="none" xmlns="http://www.w3.org/2000/svg">
<g clip-path="url(#clip0_38_1362)">
<path d="M12 24C18.6274 24 24 18.6274 24 12C24 5.37258 18.6274 0 12 0C5.37258 0 0 5.37258 0 12C0 18.6274 5.37258 24 12 24Z" fill="#334C8C"/>
<path d="M15.0853 10.8647L14.8863 12.5353C14.8777 12.6129 14.8407 12.6845 14.7824 12.7364C14.7241 12.7883 14.6486 12.8168 14.5705 12.8163H12.8337V17.7742C12.8341 17.8334 12.8111 17.8904 12.7697 17.9327C12.7283 17.975 12.6718 17.9992 12.6126 18H10.8426C10.8132 17.9996 10.7841 17.9934 10.7571 17.9817C10.73 17.9701 10.7055 17.9532 10.685 17.9321C10.6645 17.911 10.6483 17.886 10.6374 17.8587C10.6265 17.8313 10.6212 17.8021 10.6216 17.7726L10.6311 12.8163H9.31579C9.23204 12.8163 9.15171 12.783 9.09249 12.7238C9.03327 12.6646 9 12.5843 9 12.5005V10.83C9 10.7462 9.03327 10.6659 9.09249 10.6067C9.15171 10.5475 9.23204 10.5142 9.31579 10.5142H10.6232V8.89421C10.6232 7.02 11.7379 6 13.3705 6H14.7079C14.7916 6 14.872 6.03327 14.9312 6.09249C14.9904 6.15171 15.0237 6.23204 15.0237 6.31579V7.72263C15.0237 7.80638 14.9904 7.88671 14.9312 7.94593C14.872 8.00515 14.7916 8.03842 14.7079 8.03842H13.8884C13.0011 8.05263 12.8337 8.47737 12.8337 9.1121V10.5095H14.7774C14.8217 10.5102 14.8654 10.5203 14.9056 10.5391C14.9458 10.5579 14.9815 10.5849 15.0106 10.6184C15.0396 10.6519 15.0613 10.6912 15.0742 10.7336C15.087 10.7761 15.0908 10.8207 15.0853 10.8647Z" fill="white"/>
</g>
<defs>
<clipPath id="clip0_38_1362">
<rect width="24" height="24" fill="white"/>
</clipPath>
</defs>
</svg>
