<svg width="24" height="24" viewBox="0 0 24 24" fill="none" xmlns="http://www.w3.org/2000/svg">
<g clip-path="url(#clip0_38_82)">
<path d="M12.0003 24.0002C11.8687 24.0009 11.7382 23.9757 11.6164 23.926C11.4946 23.8762 11.3837 23.8029 11.2903 23.7102L3.1203 15.5402C2.65467 15.0757 2.28524 14.524 2.03318 13.9165C1.78112 13.3091 1.65137 12.6579 1.65137 12.0002C1.65137 11.3425 1.78112 10.6913 2.03318 10.0838C2.28524 9.4764 2.65467 8.92464 3.1203 8.46019L11.2903 0.290185C11.4786 0.101882 11.734 -0.00390625 12.0003 -0.00390625C12.2666 -0.00390625 12.522 0.101882 12.7103 0.290185C12.8986 0.478489 13.0044 0.733884 13.0044 1.00019C13.0044 1.26649 12.8986 1.52188 12.7103 1.71019L4.54031 9.88019C3.9785 10.4427 3.66294 11.2052 3.66294 12.0002C3.66294 12.7952 3.9785 13.5577 4.54031 14.1202L12.7103 22.2902C12.804 22.3831 12.8784 22.4937 12.9292 22.6156C12.98 22.7375 13.0061 22.8682 13.0061 23.0002C13.0061 23.1322 12.98 23.2629 12.9292 23.3848C12.8784 23.5066 12.804 23.6172 12.7103 23.7102C12.6169 23.8029 12.506 23.8762 12.3842 23.926C12.2624 23.9757 12.1319 24.0009 12.0003 24.0002Z" fill="black"/>
<path d="M22.0004 24.0002C21.8688 24.0009 21.7383 23.9757 21.6165 23.926C21.4946 23.8762 21.3838 23.8029 21.2904 23.7102L11.7104 14.1202C11.1486 13.5577 10.833 12.7952 10.833 12.0002C10.833 11.2052 11.1486 10.4427 11.7104 9.88019L21.2904 0.290185C21.4787 0.101882 21.7341 -0.00390625 22.0004 -0.00390625C22.2667 -0.00390625 22.5221 0.101882 22.7104 0.290185C22.8987 0.478489 23.0045 0.733884 23.0045 1.00019C23.0045 1.26649 22.8987 1.52188 22.7104 1.71019L13.1204 11.2902C13.0266 11.3831 12.9522 11.4937 12.9015 11.6156C12.8507 11.7375 12.8246 11.8682 12.8246 12.0002C12.8246 12.1322 12.8507 12.2629 12.9015 12.3848C12.9522 12.5066 13.0266 12.6172 13.1204 12.7102L22.7104 22.2902C22.8041 22.3831 22.8785 22.4937 22.9293 22.6156C22.98 22.7375 23.0062 22.8682 23.0062 23.0002C23.0062 23.1322 22.98 23.2629 22.9293 23.3848C22.8785 23.5066 22.8041 23.6172 22.7104 23.7102C22.6169 23.8029 22.5061 23.8762 22.3843 23.926C22.2624 23.9757 22.132 24.0009 22.0004 24.0002Z" fill="black"/>
</g>
<defs>
<clipPath id="clip0_38_82">
<rect width="24" height="24" fill="white"/>
</clipPath>
</defs>
</svg>
