<svg width="24" height="24" viewBox="0 0 24 24" fill="none" xmlns="http://www.w3.org/2000/svg">
<path d="M23.587 3.4148C23.3224 3.1492 22.9636 3 22.5895 3C22.2155 3 21.8567 3.1492 21.5921 3.4148L8.48191 16.5803L2.42551 10.4984C2.29537 10.3631 2.1397 10.2551 1.96758 10.1809C1.79546 10.1066 1.61034 10.0676 1.42302 10.0659C1.2357 10.0643 1.04993 10.1001 0.876555 10.1714C0.703177 10.2426 0.545663 10.3478 0.413203 10.4808C0.280742 10.6138 0.175989 10.772 0.105054 10.9461C0.0341199 11.1202 -0.00157449 11.3068 5.32662e-05 11.4949C0.00168103 11.683 0.0405987 11.8689 0.114535 12.0418C0.188472 12.2146 0.295947 12.3709 0.430689 12.5016L7.4845 19.5852C7.74906 19.8508 8.10783 20 8.48191 20C8.856 20 9.21476 19.8508 9.47932 19.5852L23.587 5.41803C23.8514 5.15236 24 4.79208 24 4.41641C24 4.04075 23.8514 3.68047 23.587 3.4148Z" fill="black"/>
</svg>
