<svg width="24" height="24" viewBox="0 0 24 24" fill="none" xmlns="http://www.w3.org/2000/svg">
<path d="M19 13.0002L9 13.0002L12.29 16.2902C12.3837 16.3831 12.4581 16.4937 12.5089 16.6156C12.5597 16.7375 12.5858 16.8682 12.5858 17.0002C12.5858 17.1322 12.5597 17.2629 12.5089 17.3848C12.4581 17.5066 12.3837 17.6172 12.29 17.7102C12.1026 17.8964 11.8492 18.001 11.585 18.001C11.3208 18.001 11.0674 17.8964 10.88 17.7102L6.59 13.4102C6.21441 13.0368 6.00223 12.5298 6 12.0002C6.00487 11.4741 6.21684 10.9711 6.59 10.6002L10.88 6.3002C10.9732 6.20762 11.0838 6.13431 11.2054 6.08445C11.3269 6.0346 11.4571 6.00918 11.5885 6.00964C11.7199 6.01011 11.8499 6.03645 11.9712 6.08716C12.0924 6.13787 12.2024 6.21196 12.295 6.3052C12.3876 6.39844 12.4609 6.509 12.5107 6.63057C12.5606 6.75214 12.586 6.88234 12.5856 7.01373C12.5851 7.14513 12.5588 7.27514 12.508 7.39636C12.4573 7.51757 12.3832 7.62761 12.29 7.7202L9 11.0002L19 11.0002C19.2652 11.0002 19.5196 11.1055 19.7071 11.2931C19.8946 11.4806 20 11.735 20 12.0002C20 12.2654 19.8946 12.5198 19.7071 12.7073C19.5196 12.8948 19.2652 13.0002 19 13.0002Z" fill="black"/>
</svg>
