<svg width="24" height="24" viewBox="0 0 24 24" fill="none" xmlns="http://www.w3.org/2000/svg">
<path d="M6.40987 15.9998H17.5899C17.7876 15.999 17.9807 15.9396 18.1447 15.829C18.3087 15.7184 18.4362 15.5617 18.5111 15.3787C18.5861 15.1957 18.605 14.9945 18.5656 14.8007C18.5263 14.6069 18.4303 14.4291 18.2899 14.2899L12.7099 8.70986C12.6169 8.61613 12.5063 8.54174 12.3844 8.49097C12.2626 8.4402 12.1319 8.41406 11.9999 8.41406C11.8679 8.41406 11.7372 8.4402 11.6153 8.49097C11.4934 8.54174 11.3828 8.61613 11.2899 8.70986L5.70987 14.2899C5.56945 14.4291 5.47348 14.6069 5.43409 14.8007C5.39471 14.9945 5.41368 15.1957 5.4886 15.3787C5.56353 15.5617 5.69104 15.7184 5.85503 15.829C6.01901 15.9396 6.2121 15.999 6.40987 15.9998Z" fill="black"/>
</svg>
