<svg width="24" height="24" viewBox="0 0 24 24" fill="none" xmlns="http://www.w3.org/2000/svg">
<path d="M13.2897 18.5899L7.70974 12.9999C7.52349 12.8126 7.41895 12.5591 7.41895 12.2949C7.41895 12.0307 7.52349 11.7773 7.70974 11.5899L13.2897 5.99992C13.4296 5.85889 13.6083 5.76271 13.8031 5.72364C13.9978 5.68457 14.1998 5.70438 14.3832 5.78055C14.5667 5.85671 14.7233 5.98578 14.8331 6.1513C14.9429 6.31682 15.0009 6.51129 14.9997 6.70992V17.8799C15.0009 18.0785 14.9429 18.273 14.8331 18.4385C14.7233 18.6041 14.5667 18.7331 14.3832 18.8093C14.1998 18.8855 13.9978 18.9053 13.8031 18.8662C13.6083 18.8271 13.4296 18.7309 13.2897 18.5899Z" fill="black"/>
</svg>
