<svg width="24" height="24" viewBox="0 0 24 24" fill="none" xmlns="http://www.w3.org/2000/svg">
<path d="M11.0998 1.91964C11.0998 1.67613 11.003 1.44258 10.8309 1.27039C10.6587 1.0982 10.4251 1.00147 10.1816 1.00147C7.74732 1.00414 5.41349 1.97236 3.69219 3.69369C1.97088 5.41502 1.00267 7.74888 1 10.1832C1 10.4267 1.09674 10.6603 1.26892 10.8325C1.44111 11.0047 1.67465 11.1014 1.91816 11.1014C2.16167 11.1014 2.39521 11.0047 2.5674 10.8325C2.73959 10.6603 2.83632 10.4267 2.83632 10.1832C2.83851 8.23577 3.61309 6.3687 4.99013 4.99165C6.36716 3.61459 8.23419 2.84 10.1816 2.83782C10.4251 2.83782 10.6587 2.74108 10.8309 2.56889C11.003 2.3967 11.0998 2.16316 11.0998 1.91964ZM10.1816 6.51052C9.20757 6.51052 8.27342 6.89746 7.58466 7.58622C6.89591 8.27499 6.50897 9.20916 6.50897 10.1832C6.50897 10.4267 6.41224 10.6603 6.24005 10.8325C6.06786 11.0047 5.83432 11.1014 5.59081 11.1014C5.3473 11.1014 5.11376 11.0047 4.94157 10.8325C4.76938 10.6603 4.67265 10.4267 4.67265 10.1832C4.6741 8.72257 5.25498 7.32217 6.2878 6.28934C7.32061 5.25651 8.72099 4.67562 10.1816 4.67417C10.4251 4.67417 10.6587 4.7709 10.8309 4.94309C11.003 5.11528 11.0998 5.34883 11.0998 5.59234C11.0998 5.83586 11.003 6.0694 10.8309 6.24159C10.6587 6.41378 10.4251 6.51052 10.1816 6.51052ZM1.83277 16.3708C1.30069 16.9044 1.00189 17.6271 1.00189 18.3807C1.00189 19.1342 1.30069 19.857 1.83277 20.3906L2.6683 21.3537C10.188 28.5531 28.487 10.2585 21.3988 2.71478L20.3429 1.79661C19.8088 1.27938 19.0924 0.993248 18.3489 1.00012C17.6054 1.00699 16.8945 1.30632 16.37 1.83333C16.3416 1.8618 14.6402 4.07184 14.6402 4.07184C14.1354 4.60221 13.8544 5.30672 13.8555 6.03894C13.8567 6.77116 14.1401 7.47476 14.6466 8.00347L15.7099 9.34033C15.1215 10.77 14.2564 12.0694 13.1643 13.1637C12.0722 14.258 10.7746 15.1258 9.34609 15.7171L8.00098 14.6474C7.47221 14.1412 6.76875 13.8582 6.03676 13.8572C5.30477 13.8562 4.60052 14.1372 4.07033 14.6419C4.07033 14.6419 1.86124 16.3423 1.83277 16.3708ZM3.09616 17.7058C3.09616 17.7058 5.29333 16.0155 5.32179 15.987C5.51094 15.7994 5.76653 15.6942 6.0329 15.6942C6.29928 15.6942 6.55486 15.7994 6.74402 15.987C6.76881 16.0127 8.62074 17.4882 8.62074 17.4882C8.74554 17.5876 8.89406 17.6527 9.05168 17.6771C9.2093 17.7016 9.37058 17.6846 9.51962 17.6278C11.3702 16.9388 13.0511 15.86 14.4485 14.4647C15.8458 13.0694 16.927 11.3901 17.6187 9.54049C17.6801 9.38941 17.7001 9.22472 17.6767 9.06335C17.6533 8.90198 17.5873 8.74976 17.4856 8.62232C17.4856 8.62232 16.0101 6.76944 15.9853 6.74557C15.7978 6.55641 15.6925 6.30082 15.6925 6.03444C15.6925 5.76806 15.7978 5.51247 15.9853 5.32332C16.0138 5.29577 17.7041 3.09674 17.7041 3.09674C17.8961 2.92459 18.1467 2.83239 18.4044 2.83905C18.6622 2.84571 18.9077 2.95072 19.0905 3.13255L20.1464 4.05072C25.3267 10.2796 9.46912 25.2578 4.01065 20.0995L3.17421 19.1354C2.9782 18.9539 2.86047 18.7032 2.8459 18.4364C2.83134 18.1696 2.92108 17.9076 3.09616 17.7058Z" fill="black"/>
</svg>
