<svg width="24" height="24" viewBox="0 0 24 24" fill="none" xmlns="http://www.w3.org/2000/svg">
<path d="M23.2706 9.4183C21.7196 6.8923 18.1916 2.6543 11.9996 2.6543C5.80756 2.6543 2.27956 6.8923 0.728563 9.4183C0.249091 10.1938 -0.00488281 11.0875 -0.00488281 11.9993C-0.00488281 12.9111 0.249091 13.8048 0.728563 14.5803C2.27956 17.1063 5.80756 21.3443 11.9996 21.3443C18.1916 21.3443 21.7196 17.1063 23.2706 14.5803C23.75 13.8048 24.004 12.9111 24.004 11.9993C24.004 11.0875 23.75 10.1938 23.2706 9.4183ZM21.5656 13.5333C20.2336 15.6993 17.2186 19.3443 11.9996 19.3443C6.78056 19.3443 3.76556 15.6993 2.43356 13.5333C2.1487 13.0723 1.99781 12.5412 1.99781 11.9993C1.99781 11.4574 2.1487 10.9263 2.43356 10.4653C3.76556 8.2993 6.78056 4.6543 11.9996 4.6543C17.2186 4.6543 20.2336 8.2953 21.5656 10.4653C21.8504 10.9263 22.0013 11.4574 22.0013 11.9993C22.0013 12.5412 21.8504 13.0723 21.5656 13.5333Z" fill="black"/>
<path d="M12 7C11.0111 7 10.0444 7.29324 9.22215 7.84265C8.39991 8.39206 7.75904 9.17295 7.3806 10.0866C7.00217 11.0002 6.90315 12.0055 7.09608 12.9755C7.289 13.9454 7.76521 14.8363 8.46447 15.5355C9.16373 16.2348 10.0546 16.711 11.0246 16.9039C11.9945 17.0969 12.9998 16.9978 13.9134 16.6194C14.827 16.241 15.6079 15.6001 16.1574 14.7779C16.7068 13.9556 17 12.9889 17 12C16.9984 10.6744 16.4711 9.40356 15.5338 8.46622C14.5964 7.52888 13.3256 7.00159 12 7ZM12 15C11.4067 15 10.8266 14.8241 10.3333 14.4944C9.83994 14.1648 9.45543 13.6962 9.22836 13.1481C9.0013 12.5999 8.94189 11.9967 9.05765 11.4147C9.1734 10.8328 9.45912 10.2982 9.87868 9.87868C10.2982 9.45912 10.8328 9.1734 11.4147 9.05764C11.9967 8.94189 12.5999 9.0013 13.1481 9.22836C13.6962 9.45542 14.1648 9.83994 14.4944 10.3333C14.8241 10.8266 15 11.4067 15 12C15 12.7957 14.6839 13.5587 14.1213 14.1213C13.5587 14.6839 12.7957 15 12 15Z" fill="black"/>
</svg>
