<svg width="24" height="24" viewBox="0 0 24 24" fill="none" xmlns="http://www.w3.org/2000/svg">
<g clip-path="url(#clip0_38_94)">
<path d="M12.0002 17.1703C11.3431 17.1714 10.6923 17.0431 10.0849 16.7926C9.47746 16.5421 8.92538 16.1743 8.46019 15.7103L0.290185 7.54026C0.101882 7.35196 -0.00390625 7.09657 -0.00390625 6.83026C-0.00390625 6.56396 0.101882 6.30857 0.290185 6.12026C0.478489 5.93196 0.733884 5.82617 1.00019 5.82617C1.26649 5.82617 1.52188 5.93196 1.71019 6.12026L9.88019 14.2903C10.4427 14.8521 11.2052 15.1676 12.0002 15.1676C12.7952 15.1676 13.5577 14.8521 14.1202 14.2903L22.2902 6.12026C22.4785 5.93196 22.7339 5.82617 23.0002 5.82617C23.2665 5.82617 23.5219 5.93196 23.7102 6.12026C23.8985 6.30857 24.0043 6.56396 24.0043 6.83026C24.0043 7.09657 23.8985 7.35196 23.7102 7.54026L15.5402 15.7103C15.075 16.1743 14.5229 16.5421 13.9155 16.7926C13.3081 17.0431 12.6572 17.1714 12.0002 17.1703Z" fill="black"/>
</g>
<defs>
<clipPath id="clip0_38_94">
<rect width="24" height="24" fill="white"/>
</clipPath>
</defs>
</svg>
