<svg width="24" height="24" viewBox="0 0 24 24" fill="none" xmlns="http://www.w3.org/2000/svg">
<g clip-path="url(#clip0_38_108)">
<path d="M23.7102 16.2903L15.5402 8.12031C15.0757 7.65467 14.524 7.28524 13.9165 7.03318C13.3091 6.78112 12.6579 6.65137 12.0002 6.65137C11.3425 6.65137 10.6913 6.78112 10.0838 7.03318C9.4764 7.28524 8.92464 7.65467 8.46019 8.12031L0.290185 16.2903C0.101882 16.4786 -0.00390625 16.734 -0.00390625 17.0003C-0.00390625 17.2666 0.101882 17.522 0.290185 17.7103C0.478489 17.8986 0.733884 18.0044 1.00019 18.0044C1.26649 18.0044 1.52188 17.8986 1.71019 17.7103L9.88019 9.54031C10.4427 8.9785 11.2052 8.66294 12.0002 8.66294C12.7952 8.66294 13.5577 8.9785 14.1202 9.54031L22.2902 17.7103C22.3832 17.804 22.4938 17.8784 22.6156 17.9292C22.7375 17.98 22.8682 18.0061 23.0002 18.0061C23.1322 18.0061 23.2629 17.98 23.3848 17.9292C23.5066 17.8784 23.6172 17.804 23.7102 17.7103C23.8039 17.6173 23.8783 17.5067 23.9291 17.3849C23.9798 17.263 24.006 17.1323 24.006 17.0003C24.006 16.8683 23.9798 16.7376 23.9291 16.6157C23.8783 16.4939 23.8039 16.3833 23.7102 16.2903Z" fill="black"/>
</g>
<defs>
<clipPath id="clip0_38_108">
<rect width="24" height="24" fill="white"/>
</clipPath>
</defs>
</svg>
