<svg width="24" height="24" viewBox="0 0 24 24" fill="none" xmlns="http://www.w3.org/2000/svg">
<g clip-path="url(#clip0_38_142)">
<path d="M0.88029 14.0899L4.75029 17.9999C4.84325 18.0936 4.95385 18.168 5.07571 18.2188C5.19757 18.2696 5.32828 18.2957 5.46029 18.2957C5.5923 18.2957 5.72301 18.2696 5.84487 18.2188C5.96673 18.168 6.07733 18.0936 6.17029 17.9999C6.26402 17.9069 6.33841 17.7963 6.38918 17.6745C6.43995 17.5526 6.46609 17.4219 6.46609 17.2899C6.46609 17.1579 6.43995 17.0272 6.38918 16.9053C6.33841 16.7835 6.26402 16.6729 6.17029 16.5799L2.61029 12.9999H23.0003C23.2655 12.9999 23.5199 12.8945 23.7074 12.707C23.8949 12.5195 24.0003 12.2651 24.0003 11.9999C24.0003 11.7347 23.8949 11.4803 23.7074 11.2928C23.5199 11.1053 23.2655 10.9999 23.0003 10.9999H2.55029L6.17029 7.3799C6.34758 7.19392 6.44648 6.94684 6.44648 6.6899C6.44648 6.43296 6.34758 6.18588 6.17029 5.9999C6.07733 5.90617 5.96673 5.83178 5.84487 5.78101C5.72301 5.73024 5.5923 5.7041 5.46029 5.7041C5.32828 5.7041 5.19757 5.73024 5.07571 5.78101C4.95385 5.83178 4.84325 5.90617 4.75029 5.9999L0.88029 9.8499C0.318488 10.4124 0.00292969 11.1749 0.00292969 11.9699C0.00292969 12.7649 0.318488 13.5274 0.88029 14.0899Z" fill="black"/>
</g>
<defs>
<clipPath id="clip0_38_142">
<rect width="24" height="24" fill="white"/>
</clipPath>
</defs>
</svg>
