<svg width="24" height="24" viewBox="0 0 24 24" fill="none" xmlns="http://www.w3.org/2000/svg">
<path d="M17.7098 9.8794L13.4098 5.5894C13.0351 5.2169 12.5282 5.00781 11.9998 5.00781C11.4714 5.00781 10.9645 5.2169 10.5898 5.5894L6.28982 9.8794C6.10356 10.0668 5.99902 10.3202 5.99902 10.5844C5.99902 10.8486 6.10356 11.102 6.28982 11.2894C6.38278 11.3831 6.49338 11.4575 6.61524 11.5083C6.7371 11.5591 6.8678 11.5852 6.99982 11.5852C7.13183 11.5852 7.26253 11.5591 7.38439 11.5083C7.50625 11.4575 7.61685 11.3831 7.70982 11.2894L10.9998 7.9994V18.9994C10.9998 19.2646 11.1052 19.519 11.2927 19.7065C11.4802 19.894 11.7346 19.9994 11.9998 19.9994C12.265 19.9994 12.5194 19.894 12.7069 19.7065C12.8945 19.519 12.9998 19.2646 12.9998 18.9994V7.9994L16.2898 11.2894C16.4768 11.4777 16.7309 11.584 16.9963 11.585C17.2616 11.5859 17.5165 11.4814 17.7048 11.2944C17.8931 11.1074 17.9994 10.8533 18.0004 10.5879C18.0013 10.3226 17.8968 10.0677 17.7098 9.8794Z" fill="black"/>
</svg>
