<svg width="24" height="24" viewBox="0 0 24 24" fill="none" xmlns="http://www.w3.org/2000/svg">
<g clip-path="url(#clip0_38_85)">
<path d="M11.83 24.0002C11.6984 24.0009 11.5679 23.9757 11.4461 23.926C11.3243 23.8762 11.2135 23.8029 11.12 23.7102C11.0263 23.6172 10.9519 23.5066 10.9011 23.3848C10.8504 23.2629 10.8242 23.1322 10.8242 23.0002C10.8242 22.8682 10.8504 22.7375 10.9011 22.6156C10.9519 22.4937 11.0263 22.3831 11.12 22.2902L19.29 14.1202C19.8518 13.5577 20.1674 12.7952 20.1674 12.0002C20.1674 11.2052 19.8518 10.4427 19.29 9.88019L11.12 1.71019C11.0268 1.61695 10.9528 1.50626 10.9024 1.38443C10.8519 1.26261 10.8259 1.13204 10.8259 1.00019C10.8259 0.733884 10.9317 0.478489 11.12 0.290185C11.3083 0.101882 11.5637 -0.00390625 11.83 -0.00390625C12.0963 -0.00390625 12.3517 0.101882 12.54 0.290185L20.71 8.46019C21.1756 8.92464 21.5451 9.4764 21.7971 10.0838C22.0492 10.6913 22.179 11.3425 22.179 12.0002C22.179 12.6579 22.0492 13.3091 21.7971 13.9165C21.5451 14.524 21.1756 15.0757 20.71 15.5402L12.54 23.7102C12.4466 23.8029 12.3358 23.8762 12.2139 23.926C12.0921 23.9757 11.9616 24.0009 11.83 24.0002Z" fill="black"/>
<path d="M1.83002 24.0002C1.69841 24.0009 1.56795 23.9757 1.44611 23.926C1.32427 23.8762 1.21346 23.8029 1.12002 23.7102C1.02629 23.6172 0.951894 23.5066 0.901126 23.3848C0.850357 23.2629 0.824219 23.1322 0.824219 23.0002C0.824219 22.8682 0.850357 22.7375 0.901126 22.6156C0.951894 22.4937 1.02629 22.3831 1.12002 22.2902L10.71 12.7102C10.8037 12.6172 10.8781 12.5066 10.9289 12.3848C10.9797 12.2629 11.0058 12.1322 11.0058 12.0002C11.0058 11.8682 10.9797 11.7375 10.9289 11.6156C10.8781 11.4937 10.8037 11.3831 10.71 11.2902L1.12002 1.71019C0.931713 1.52188 0.825925 1.26649 0.825925 1.00019C0.825925 0.733884 0.931713 0.478489 1.12002 0.290185C1.30832 0.101882 1.56372 -0.00390625 1.83002 -0.00390625C2.09632 -0.00390625 2.35171 0.101882 2.54002 0.290185L12.12 9.88019C12.6818 10.4427 12.9974 11.2052 12.9974 12.0002C12.9974 12.7952 12.6818 13.5577 12.12 14.1202L2.54002 23.7102C2.44658 23.8029 2.33576 23.8762 2.21392 23.926C2.09209 23.9757 1.96162 24.0009 1.83002 24.0002Z" fill="black"/>
</g>
<defs>
<clipPath id="clip0_38_85">
<rect width="24" height="24" fill="white"/>
</clipPath>
</defs>
</svg>
