<svg width="24" height="24" viewBox="0 0 24 24" fill="none" xmlns="http://www.w3.org/2000/svg">
<path d="M18.0002 15.4998C17.8686 15.5006 17.7381 15.4753 17.6163 15.4256C17.4944 15.3758 17.3836 15.3025 17.2902 15.2098L12.7102 10.6198C12.6172 10.5261 12.5066 10.4517 12.3848 10.4009C12.2629 10.3502 12.1322 10.324 12.0002 10.324C11.8682 10.324 11.7375 10.3502 11.6156 10.4009C11.4937 10.4517 11.3831 10.5261 11.2902 10.6198L6.71019 15.2098C6.52188 15.3981 6.26649 15.5039 6.00019 15.5039C5.73388 15.5039 5.47849 15.3981 5.29019 15.2098C5.10188 15.0215 4.99609 14.7661 4.99609 14.4998C4.99609 14.3679 5.02207 14.2374 5.07253 14.1156C5.12299 13.9937 5.19695 13.883 5.29019 13.7898L9.88019 9.20982C10.4501 8.66225 11.2098 8.35645 12.0002 8.35645C12.7905 8.35645 13.5502 8.66225 14.1202 9.20982L18.7102 13.7898C18.8039 13.8828 18.8783 13.9934 18.9291 14.1152C18.9798 14.2371 19.006 14.3678 19.006 14.4998C19.006 14.6318 18.9798 14.7625 18.9291 14.8844C18.8783 15.0062 18.8039 15.1168 18.7102 15.2098C18.6167 15.3025 18.5059 15.3758 18.3841 15.4256C18.2623 15.4753 18.1318 15.5006 18.0002 15.4998Z" fill="black"/>
</svg>
