<svg width="24" height="24" viewBox="0 0 24 24" fill="none" xmlns="http://www.w3.org/2000/svg">
<g clip-path="url(#clip0_38_146)">
<path d="M18.374 2.66275L12.8727 2.63447C12.7407 2.63392 12.6099 2.65953 12.4878 2.70979C12.3658 2.76006 12.2549 2.834 12.1615 2.92735C12.0682 3.0207 11.9942 3.1316 11.944 3.25367C11.8937 3.37573 11.8681 3.50655 11.8686 3.63856C11.8694 3.90274 11.9747 4.15588 12.1615 4.34269C12.3483 4.5295 12.6015 4.63479 12.8657 4.63558L17.9215 4.65679L3.50356 19.0747C3.31602 19.2622 3.21067 19.5166 3.21067 19.7818C3.21067 20.047 3.31602 20.3014 3.50356 20.4889C3.6911 20.6764 3.94545 20.7818 4.21067 20.7818C4.47588 20.7818 4.73024 20.6764 4.91777 20.4889L19.3781 6.02858L19.371 11.141C19.3705 11.273 19.3961 11.4038 19.4464 11.5258C19.4966 11.6479 19.5706 11.7588 19.6639 11.8522C19.7573 11.9455 19.8682 12.0195 19.9902 12.0697C20.1123 12.12 20.2431 12.1456 20.3751 12.1451C20.5071 12.1456 20.638 12.12 20.76 12.0697C20.8821 12.0195 20.993 11.9455 21.0863 11.8522C21.1797 11.7588 21.2536 11.6479 21.3039 11.5258C21.3542 11.4038 21.3798 11.273 21.3792 11.141L21.3721 5.66088C21.3717 4.86588 21.0556 4.10358 20.4935 3.54143C19.9313 2.97928 19.169 2.66324 18.374 2.66275Z" fill="black"/>
</g>
<defs>
<clipPath id="clip0_38_146">
<rect width="24" height="24" fill="white"/>
</clipPath>
</defs>
</svg>
