<svg width="24" height="24" viewBox="0 0 24 24" fill="none" xmlns="http://www.w3.org/2000/svg">
<path d="M13.1003 18.9998C12.9025 18.999 12.7094 18.9395 12.5455 18.829C12.3815 18.7184 12.254 18.5617 12.179 18.3787C12.1041 18.1956 12.0851 17.9945 12.1245 17.8007C12.1639 17.6069 12.2599 17.4291 12.4003 17.2898L17.0003 12.7098C17.094 12.6169 17.1684 12.5063 17.2192 12.3844C17.27 12.2625 17.2961 12.1318 17.2961 11.9998C17.2961 11.8678 17.27 11.7371 17.2192 11.6152C17.1684 11.4934 17.094 11.3828 17.0003 11.2898L12.4003 6.70982C12.3066 6.61685 12.2322 6.50625 12.1814 6.38439C12.1306 6.26253 12.1045 6.13183 12.1045 5.99982C12.1045 5.8678 12.1306 5.7371 12.1814 5.61524C12.2322 5.49338 12.3066 5.38278 12.4003 5.28982C12.5877 5.10356 12.8411 4.99902 13.1053 4.99902C13.3695 4.99902 13.6229 5.10356 13.8103 5.28982L18.4003 9.87982C18.9621 10.4423 19.2777 11.2048 19.2777 11.9998C19.2777 12.7948 18.9621 13.5573 18.4003 14.1198L13.8103 18.7098C13.7169 18.8025 13.606 18.8758 13.4842 18.9256C13.3624 18.9754 13.2319 19.0006 13.1003 18.9998Z" fill="black"/>
<path d="M6.1003 18.9998C5.90253 18.999 5.70944 18.9395 5.54546 18.829C5.38147 18.7184 5.25396 18.5617 5.17903 18.3787C5.10411 18.1956 5.08514 17.9945 5.12452 17.8007C5.16391 17.6069 5.25988 17.4291 5.4003 17.2898L10.6903 11.9998L5.4003 6.70982C5.30657 6.61685 5.23218 6.50625 5.18141 6.38439C5.13064 6.26253 5.1045 6.13183 5.1045 5.99982C5.1045 5.8678 5.13064 5.7371 5.18141 5.61524C5.23218 5.49338 5.30657 5.38278 5.4003 5.28982C5.58766 5.10356 5.84111 4.99902 6.1053 4.99902C6.36949 4.99902 6.62294 5.10356 6.8103 5.28982L12.8103 11.2898C12.904 11.3828 12.9784 11.4934 13.0292 11.6152C13.08 11.7371 13.1061 11.8678 13.1061 11.9998C13.1061 12.1318 13.08 12.2625 13.0292 12.3844C12.9784 12.5063 12.904 12.6169 12.8103 12.7098L6.8103 18.7098C6.71686 18.8025 6.60604 18.8758 6.48421 18.9256C6.36237 18.9754 6.23191 19.0006 6.1003 18.9998Z" fill="black"/>
</svg>
