<svg width="24" height="24" viewBox="0 0 24 24" fill="none" xmlns="http://www.w3.org/2000/svg">
<path d="M17.9995 21.9997H12.9995V2.82274L17.2995 7.12274C17.4881 7.30489 17.7407 7.40569 18.0029 7.40341C18.2651 7.40113 18.5159 7.29596 18.7013 7.11055C18.8868 6.92515 18.9919 6.67433 18.9942 6.41214C18.9965 6.14994 18.8957 5.89734 18.7135 5.70874L13.7675 0.762739C13.5354 0.530523 13.2597 0.346316 12.9564 0.220638C12.653 0.0949597 12.3279 0.0302734 11.9995 0.0302734C11.6712 0.0302734 11.346 0.0949597 11.0427 0.220638C10.7393 0.346316 10.4637 0.530523 10.2315 0.762739L5.28152 5.71274C5.09401 5.90077 4.98888 6.1556 4.98926 6.42115C4.98963 6.6867 5.09548 6.94123 5.28352 7.12874C5.47156 7.31624 5.72638 7.42137 5.99194 7.421C6.25749 7.42062 6.51201 7.31477 6.69952 7.12674L10.9995 2.82674V21.9997H5.99952C5.73431 21.9997 5.47995 22.1051 5.29242 22.2926C5.10488 22.4802 4.99952 22.7345 4.99952 22.9997C4.99952 23.2649 5.10488 23.5193 5.29242 23.7068C5.47995 23.8944 5.73431 23.9997 5.99952 23.9997H17.9995C18.2647 23.9997 18.5191 23.8944 18.7066 23.7068C18.8942 23.5193 18.9995 23.2649 18.9995 22.9997C18.9995 22.7345 18.8942 22.4802 18.7066 22.2926C18.5191 22.1051 18.2647 21.9997 17.9995 21.9997Z" fill="black"/>
</svg>
