<svg width="24" height="24" viewBox="0 0 24 24" fill="none" xmlns="http://www.w3.org/2000/svg">
<g clip-path="url(#clip0_38_156)">
<path d="M5.99978 6.2103C6.18714 6.39655 6.44059 6.50109 6.70478 6.50109C6.96896 6.50109 7.22241 6.39655 7.40978 6.2103L10.9998 2.58029V23.0003C10.9998 23.2655 11.1051 23.5199 11.2927 23.7074C11.4802 23.895 11.7346 24.0003 11.9998 24.0003C12.265 24.0003 12.5193 23.895 12.7069 23.7074C12.8944 23.5199 12.9998 23.2655 12.9998 23.0003V2.59029L16.6198 6.2103C16.7127 6.30403 16.8233 6.37842 16.9452 6.42919C17.0671 6.47996 17.1978 6.5061 17.3298 6.5061C17.4618 6.5061 17.5925 6.47996 17.7144 6.42919C17.8362 6.37842 17.9468 6.30403 18.0398 6.2103C18.226 6.02293 18.3306 5.76948 18.3306 5.5053C18.3306 5.24111 18.226 4.98766 18.0398 4.8003L14.1298 0.880291C13.5673 0.318488 12.8048 0.00292969 12.0098 0.00292969C11.2148 0.00292969 10.4523 0.318488 9.88978 0.880291L5.99978 4.8003C5.81353 4.98766 5.70898 5.24111 5.70898 5.5053C5.70898 5.76948 5.81353 6.02293 5.99978 6.2103Z" fill="black"/>
</g>
<defs>
<clipPath id="clip0_38_156">
<rect width="24" height="24" fill="white"/>
</clipPath>
</defs>
</svg>
