<svg width="24" height="24" viewBox="0 0 24 24" fill="none" xmlns="http://www.w3.org/2000/svg">
<g clip-path="url(#clip0_38_1369)">
<path d="M12 24C18.6274 24 24 18.6274 24 12C24 5.37258 18.6274 0 12 0C5.37258 0 0 5.37258 0 12C0 18.6274 5.37258 24 12 24Z" fill="#FF6800"/>
<path d="M11.4984 14.4531C10.5684 14.3568 9.73002 14.1279 9.0116 13.5657C8.92045 13.4989 8.83295 13.4272 8.74949 13.351C8.61359 13.2299 8.5267 13.0633 8.50521 12.8825C8.48373 12.7018 8.52913 12.5194 8.63286 12.3699C8.73659 12.2203 8.89147 12.1138 9.06828 12.0706C9.24509 12.0274 9.43161 12.0504 9.59265 12.1352C9.66471 12.1693 9.73343 12.21 9.79791 12.2568C10.4635 12.7085 11.2477 12.9533 12.052 12.9607C12.8563 12.968 13.6448 12.7374 14.3184 12.2978C14.4488 12.1937 14.5985 12.1164 14.759 12.0705C14.9069 12.0274 15.065 12.0351 15.2081 12.0923C15.3512 12.1496 15.471 12.253 15.5484 12.3863C15.7458 12.7021 15.7426 13.0178 15.5011 13.2673C15.1298 13.6433 14.6809 13.9338 14.1858 14.1184C13.7042 14.2911 13.203 14.403 12.6937 14.4515C12.7711 14.5352 12.8074 14.5763 12.8516 14.6252C13.5432 15.32 14.2363 16.01 14.9248 16.7078C15.035 16.807 15.11 16.9393 15.1385 17.0849C15.167 17.2304 15.1474 17.3813 15.0826 17.5147C15.0156 17.6604 14.907 17.7831 14.7705 17.8674C14.634 17.9516 14.4756 17.9937 14.3153 17.9884C14.1271 17.9727 13.952 17.8857 13.8258 17.7452C13.3032 17.221 12.7726 16.7047 12.2611 16.1663C12.1126 16.0084 12.0416 16.04 11.9105 16.1663C11.3842 16.7063 10.8526 17.24 10.3158 17.7673C10.2163 17.8773 10.0831 17.9512 9.93715 17.9775C9.79117 18.0038 9.6406 17.9809 9.50897 17.9126C9.36599 17.8463 9.24522 17.7401 9.16118 17.6067C9.07715 17.4734 9.03343 17.3186 9.03528 17.161C9.05026 16.9661 9.14093 16.7847 9.28791 16.6557C9.97107 15.9736 10.6553 15.2894 11.3405 14.6031C11.3911 14.5715 11.4321 14.5273 11.4984 14.4531Z" fill="white"/>
<path d="M12.0652 12.0757C11.4635 12.0723 10.8764 11.8902 10.3783 11.5526C9.88028 11.215 9.49368 10.7371 9.26757 10.1795C9.04147 9.62188 8.98604 9.00969 9.10831 8.42054C9.23059 7.8314 9.52506 7.29183 9.9544 6.87027C10.3837 6.4487 10.9286 6.16412 11.5199 6.05262C12.1111 5.94112 12.7222 6.00771 13.2756 6.24396C13.829 6.4802 14.2997 6.87546 14.6282 7.37961C14.9566 7.88376 15.128 8.47409 15.1205 9.07574C15.1101 9.87774 14.7831 10.6431 14.2108 11.2051C13.6385 11.767 12.8673 12.08 12.0652 12.0757ZM13.5731 9.03627C13.5725 8.74214 13.4846 8.45481 13.3205 8.21069C13.1564 7.96657 12.9236 7.77664 12.6515 7.66495C12.3794 7.55326 12.0803 7.52485 11.792 7.58331C11.5038 7.64176 11.2393 7.78446 11.0322 7.99333C10.8252 8.20219 10.6847 8.46782 10.6287 8.75657C10.5727 9.04532 10.6037 9.34419 10.7177 9.61533C10.8317 9.88647 11.0236 10.1177 11.2691 10.2796C11.5146 10.4416 11.8027 10.5271 12.0968 10.5252C12.2916 10.5246 12.4843 10.4856 12.6639 10.4104C12.8436 10.3352 13.0067 10.2253 13.1438 10.087C13.2809 9.94866 13.3894 9.78466 13.4631 9.60437C13.5368 9.42408 13.5741 9.23103 13.5731 9.03627Z" fill="white"/>
</g>
<defs>
<clipPath id="clip0_38_1369">
<rect width="24" height="24" fill="white"/>
</clipPath>
</defs>
</svg>
