<svg xmlns="http://www.w3.org/2000/svg" width="20" height="20" viewBox="0 0 20 20" fill="none">
<path d="M18.9842 2.00017C19.1377 1.99702 19.4769 2.03637 19.6978 2.22055C19.8447 2.35135 19.9383 2.53392 19.9603 2.73214C19.9848 2.87854 20.0155 3.21383 19.991 3.47513C19.7147 6.46284 18.5146 13.7101 17.9038 17.0552C17.646 18.4719 17.138 18.9457 16.6454 18.9914C15.5772 19.0937 14.7654 18.2673 13.7295 17.5715C12.1089 16.4806 11.1927 15.8022 9.61961 14.7381C7.80102 13.5102 8.97965 12.8334 10.0156 11.7315C10.2872 11.4418 14.9987 7.04526 15.0907 6.64701C15.1015 6.59664 15.1122 6.41089 15.0048 6.31329C14.8974 6.2157 14.7378 6.24875 14.6227 6.27551C14.46 6.31329 11.871 8.07003 6.85565 11.541C6.11901 12.0605 5.45449 12.3123 4.8575 12.2966C4.20066 12.284 2.93608 11.9172 1.99532 11.604C0.841246 11.2183 -0.0749578 11.0152 0.00484547 10.362C0.0462818 10.0219 0.503616 9.67407 1.37531 9.31831C6.74362 6.91933 10.3225 5.33733 12.115 4.57388C17.2285 2.39213 18.2921 2.01276 18.9842 2.00017Z" fill="white"/>
</svg>
