<svg width="24" height="24" viewBox="0 0 24 24" fill="none" xmlns="http://www.w3.org/2000/svg">
<g clip-path="url(#clip0_38_1393)">
<path d="M12 0C8.81812 0 5.76375 1.26506 3.51562 3.51469C1.26518 5.76521 0.000623381 8.81734 0 12C0 15.1813 1.26562 18.2357 3.51562 20.4853C5.76375 22.7349 8.81812 24 12 24C15.1819 24 18.2362 22.7349 20.4844 20.4853C22.7344 18.2357 24 15.1813 24 12C24 8.81869 22.7344 5.76431 20.4844 3.51469C18.2362 1.26506 15.1819 0 12 0Z" fill="url(#paint0_linear_38_1393)"/>
<path d="M5.89571 11.6494C9.39446 10.1254 11.727 9.1206 12.8932 8.63516C16.227 7.24898 16.9188 7.00823 17.3707 7.00007C17.4701 6.99848 17.6913 7.02304 17.8357 7.13976C17.9557 7.2382 17.9895 7.37132 18.0063 7.46479C18.0213 7.55816 18.042 7.77098 18.0251 7.9371C17.8451 9.8346 17.0632 14.4392 16.6657 16.5645C16.4988 17.4638 16.167 17.7653 15.8463 17.7947C15.1488 17.8589 14.6201 17.3342 13.9451 16.8919C12.8895 16.1995 12.2932 15.7686 11.2676 15.093C10.0826 14.3123 10.8513 13.8831 11.5263 13.1819C11.7026 12.9983 14.7738 10.2055 14.832 9.95216C14.8395 9.92048 14.847 9.80235 14.7757 9.7401C14.7063 9.67766 14.6032 9.69904 14.5282 9.71591C14.4213 9.73991 12.7357 10.8552 9.46571 13.0615C8.98759 13.3904 8.55446 13.5507 8.16446 13.5422C7.73696 13.533 6.91196 13.3 6.29884 13.1009C5.54884 12.8565 4.95071 12.7274 5.00321 12.3124C5.02946 12.0964 5.32759 11.8754 5.89571 11.6494Z" fill="white"/>
</g>
<defs>
<linearGradient id="paint0_linear_38_1393" x1="1200" y1="0" x2="1200" y2="2400" gradientUnits="userSpaceOnUse">
<stop stop-color="#2AABEE"/>
<stop offset="1" stop-color="#229ED9"/>
</linearGradient>
<clipPath id="clip0_38_1393">
<rect width="24" height="24" fill="white"/>
</clipPath>
</defs>
</svg>
