<svg width="24" height="24" viewBox="0 0 24 24" fill="none" xmlns="http://www.w3.org/2000/svg">
<g clip-path="url(#clip0_38_1386)">
<path d="M12 24C18.6274 24 24 18.6274 24 12C24 5.37258 18.6274 0 12 0C5.37258 0 0 5.37258 0 12C0 18.6274 5.37258 24 12 24Z" fill="#00A6DE"/>
<path d="M17.9759 8.35632C17.6923 8.78239 17.3457 9.16303 16.948 9.48527C16.8979 9.52705 16.8577 9.57948 16.8304 9.63875C16.8031 9.69802 16.7893 9.76264 16.7901 9.8279V9.86737C16.7855 10.7231 16.6283 11.5711 16.3259 12.3716C16.0143 13.2118 15.5514 13.9877 14.9601 14.6611C14.1655 15.5656 13.1433 16.2411 11.9996 16.6174C11.2481 16.8613 10.4623 16.9834 9.67223 16.9789C8.41876 16.9788 7.18764 16.647 6.10381 16.0174C6.06497 15.9953 6.0344 15.9611 6.01673 15.9201C5.99906 15.8791 5.99527 15.8334 6.00592 15.79C6.01685 15.7473 6.04175 15.7095 6.07666 15.6826C6.11157 15.6557 6.15448 15.6413 6.19855 15.6416H6.49855C7.45112 15.6439 8.38262 15.3613 9.17329 14.83C8.70209 14.7537 8.2611 14.5488 7.89892 14.2379C7.53674 13.927 7.26743 13.5221 7.12065 13.0679C7.11314 13.0451 7.11177 13.0208 7.1167 12.9974C7.12163 12.9739 7.13267 12.9522 7.1487 12.9344C7.16474 12.9166 7.18519 12.9034 7.208 12.896C7.2308 12.8887 7.25514 12.8875 7.27855 12.8926C7.42224 12.9197 7.56812 12.9334 7.71434 12.9337H7.7696C7.3142 12.7245 6.92914 12.3878 6.66099 11.9644C6.39283 11.541 6.25305 11.049 6.25855 10.5479C6.25871 10.5244 6.26494 10.5014 6.27664 10.4811C6.28833 10.4608 6.30509 10.4438 6.32529 10.4319C6.34548 10.42 6.36841 10.4135 6.39186 10.4131C6.4153 10.4126 6.43846 10.4183 6.45907 10.4295C6.64431 10.5329 6.84307 10.61 7.0496 10.6584C6.64137 10.2545 6.37878 9.72653 6.30305 9.15727C6.22732 8.58802 6.34274 8.00973 6.63118 7.51316C6.64209 7.49409 6.65747 7.47795 6.67599 7.46613C6.69452 7.45431 6.71563 7.44716 6.73753 7.44529C6.75942 7.44343 6.78144 7.44691 6.80169 7.45543C6.82195 7.46395 6.83983 7.47726 6.85381 7.49421C7.4241 8.20032 8.13038 8.7847 8.93078 9.2127C9.73117 9.6407 10.6094 9.90359 11.5133 9.98579H11.5259C11.5392 9.98541 11.5523 9.98232 11.5643 9.97673C11.5764 9.97113 11.5871 9.96314 11.596 9.95325C11.6049 9.94335 11.6116 9.93175 11.6159 9.91916C11.6201 9.90657 11.6217 9.89324 11.6207 9.88C11.5854 9.56313 11.6057 9.24253 11.6807 8.93263C11.7825 8.51139 11.9917 8.12367 12.2877 7.80715C12.5837 7.49064 12.9566 7.25609 13.3701 7.12632C13.6354 7.04345 13.9117 7.00087 14.1896 7C14.8198 6.99928 15.4285 7.22895 15.9012 7.64579C15.9624 7.70057 16.0417 7.73092 16.1238 7.73105C16.1505 7.73048 16.177 7.72677 16.2028 7.72C16.6469 7.60778 17.0723 7.43174 17.4659 7.19737C17.4895 7.18284 17.5169 7.17595 17.5446 7.17764C17.5722 7.17932 17.5986 7.18951 17.6202 7.2068C17.6418 7.22408 17.6576 7.24763 17.6653 7.27421C17.673 7.30079 17.6723 7.3291 17.6633 7.35526C17.5319 7.76861 17.2977 8.14184 16.9828 8.44C17.2665 8.37235 17.5435 8.2788 17.8101 8.16053C17.8364 8.15037 17.8653 8.14866 17.8926 8.15563C17.9199 8.16261 17.9444 8.17793 17.9627 8.19946C17.9809 8.22099 17.992 8.24766 17.9943 8.27577C17.9967 8.30388 17.9903 8.33203 17.9759 8.35632Z" fill="white"/>
</g>
<defs>
<clipPath id="clip0_38_1386">
<rect width="24" height="24" fill="white"/>
</clipPath>
</defs>
</svg>
