<svg width="24" height="24" viewBox="0 0 24 24" fill="none" xmlns="http://www.w3.org/2000/svg">
<g clip-path="url(#clip0_38_1410)">
<path d="M24 3V10C24 10.552 23.553 11 23 11C22.447 11 22 10.552 22 10V3.414L10.207 15.207C10.012 15.402 9.756 15.5 9.5 15.5C9.244 15.5 8.988 15.402 8.793 15.207C8.402 14.816 8.402 14.184 8.793 13.793L20.586 2H14C13.447 2 13 1.552 13 1C13 0.448 13.447 0 14 0H21C22.654 0 24 1.346 24 3ZM23 14C22.447 14 22 14.448 22 15V19C22 20.654 20.654 22 19 22H5C3.346 22 2 20.654 2 19V5C2 3.346 3.346 2 5 2H9C9.553 2 10 1.552 10 1C10 0.448 9.553 0 9 0H5C2.243 0 0 2.243 0 5V19C0 21.757 2.243 24 5 24H19C21.757 24 24 21.757 24 19V15C24 14.448 23.553 14 23 14Z" fill="black"/>
</g>
<defs>
<clipPath id="clip0_38_1410">
<rect width="24" height="24" fill="white"/>
</clipPath>
</defs>
</svg>
