<svg width="24" height="24" viewBox="0 0 24 24" fill="none" xmlns="http://www.w3.org/2000/svg">
<g clip-path="url(#clip0_38_1397)">
<path d="M12 24C18.6274 24 24 18.6274 24 12C24 5.37258 18.6274 0 12 0C5.37258 0 0 5.37258 0 12C0 18.6274 5.37258 24 12 24Z" fill="#4065D6"/>
<path d="M17.5425 15.3789C17.2615 15.4184 15.8957 15.3789 15.8246 15.3789C15.4715 15.3825 15.1312 15.247 14.8772 15.0016C14.5883 14.7237 14.3278 14.4174 14.0515 14.1284C13.9676 14.0403 13.8773 13.9585 13.7815 13.8837C13.5557 13.7116 13.333 13.7511 13.2272 14.0163C13.1444 14.3038 13.0873 14.5981 13.0567 14.8958C13.0518 15.0212 12.9973 15.1395 12.9052 15.2247C12.8132 15.31 12.6911 15.3552 12.5657 15.3505C12.3793 15.36 12.193 15.3647 12.0083 15.36C11.3363 15.3565 10.6746 15.1942 10.0772 14.8863C9.43237 14.5259 8.87026 14.0343 8.42724 13.4432C7.71843 12.5072 7.10585 11.5021 6.59882 10.4432C6.57198 10.3895 6.03988 9.25737 6.02724 9.20526C5.99425 9.13108 5.99111 9.04704 6.01845 8.97059C6.04579 8.89415 6.10153 8.83117 6.17409 8.79474C6.26882 8.75842 8.02303 8.79474 8.05145 8.79474C8.18208 8.79349 8.30968 8.83404 8.41564 8.91045C8.52159 8.98686 8.60034 9.09514 8.6404 9.21947C8.96483 10.0466 9.4079 10.8221 9.95567 11.5216C10.0321 11.6159 10.122 11.6983 10.2225 11.7663C10.2484 11.7913 10.2805 11.809 10.3155 11.8174C10.3505 11.8258 10.3872 11.8248 10.4216 11.8143C10.4561 11.8038 10.4871 11.7843 10.5115 11.7579C10.5359 11.7314 10.5528 11.6989 10.5604 11.6637C10.6298 11.4354 10.6706 11.1994 10.682 10.9611C10.6915 10.4874 10.682 10.1716 10.6551 9.69789C10.6647 9.53647 10.6102 9.3778 10.5035 9.25631C10.3968 9.13481 10.2464 9.0603 10.0851 9.04895C9.94619 9.02526 9.92724 8.91158 10.0236 8.79789C10.2083 8.56263 10.4641 8.52474 10.742 8.51053C11.162 8.48684 11.5836 8.51053 12.0051 8.51053H12.0967C12.2818 8.51007 12.4665 8.52858 12.6478 8.56579C12.7538 8.5875 12.85 8.64289 12.9219 8.72369C12.9939 8.8045 13.0379 8.9064 13.0472 9.01421C13.0685 9.13352 13.078 9.25462 13.0757 9.37579C13.0646 9.89211 13.0393 10.4084 13.033 10.9263C13.0293 11.1309 13.0478 11.3352 13.0883 11.5358C13.1499 11.8105 13.3378 11.88 13.5304 11.6795C13.7704 11.4218 13.9906 11.1463 14.1888 10.8553C14.5453 10.3254 14.8389 9.75573 15.0636 9.15789C15.1851 8.85158 15.2783 8.78368 15.6083 8.78368H17.4699C17.5809 8.78183 17.6917 8.79674 17.7983 8.82789C17.8359 8.83793 17.8711 8.85559 17.9016 8.87979C17.9321 8.90398 17.9574 8.93419 17.9757 8.96854C17.9941 9.00289 18.0052 9.04065 18.0084 9.07947C18.0115 9.11829 18.0067 9.15734 17.9941 9.19421C17.8852 9.59031 17.6984 9.9607 17.4446 10.2837C17.0657 10.8189 16.6678 11.3416 16.2794 11.8626C16.2302 11.9308 16.1854 12.002 16.1451 12.0758C15.9999 12.3379 16.0109 12.4863 16.2209 12.7074C16.5588 13.0547 16.9204 13.3816 17.2457 13.7384C17.4855 13.9984 17.7022 14.279 17.893 14.5768C18.133 14.9621 17.9862 15.3158 17.5425 15.3789Z" fill="white"/>
</g>
<defs>
<clipPath id="clip0_38_1397">
<rect width="24" height="24" fill="white"/>
</clipPath>
</defs>
</svg>
