<svg width="20" height="20" viewBox="0 0 20 20" fill="none" xmlns="http://www.w3.org/2000/svg">
<path d="M17.118 2.94534C15.4398 1.2623 13.2101 0.229707 10.8315 0.0339901C8.45285 -0.161727 6.08203 0.49233 4.14706 1.87807C2.21209 3.26382 0.84048 5.28993 0.279877 7.59061C-0.280726 9.89128 0.00661629 12.3149 1.09002 14.4239L0.0285686 19.5343C0.0172032 19.5853 0.0167628 19.6382 0.027276 19.6894C0.0377891 19.7406 0.0590219 19.7891 0.0896023 19.8316C0.133396 19.8961 0.195996 19.9458 0.269028 19.974C0.342059 20.0022 0.422037 20.0076 0.498263 19.9895L5.54018 18.8027C7.6611 19.8489 10.0876 20.1149 12.3877 19.5532C14.6878 18.9916 16.7124 17.6388 18.1009 15.7356C19.4895 13.8325 20.152 11.5025 19.9706 9.1603C19.7891 6.81815 18.7755 4.61582 17.1101 2.94534H17.118ZM15.5418 15.4107C14.3811 16.5596 12.8865 17.3189 11.2682 17.5818C9.6498 17.8448 7.98903 17.5981 6.51937 16.8765L5.8135 16.5291L2.71671 17.2554V17.2159L3.3695 14.1187L3.02453 13.445C2.27308 11.9836 2.00775 10.3238 2.26662 8.70364C2.52549 7.08348 3.29526 5.58628 4.46546 4.42687C5.93479 2.97131 7.92673 2.15371 10.0036 2.15371C12.0805 2.15371 14.0724 2.97131 15.5418 4.42687L15.5762 4.47424C17.0265 5.93442 17.8361 7.90377 17.8286 9.95324C17.8212 12.0027 16.9973 13.9662 15.5364 15.416L15.5418 15.4107Z" fill="black"/>
<path d="M14.8855 13.3341C14.5217 13.9506 13.9441 14.704 13.2241 14.893C11.952 15.2218 10.0158 14.893 7.59119 12.4794L7.56066 12.4492C5.45149 10.3288 4.89176 8.56169 5.01643 7.16173C5.09021 6.36449 5.70591 5.64671 6.22494 5.17549C6.30746 5.10056 6.40511 5.04746 6.51009 5.02043C6.61507 4.9934 6.72447 4.99319 6.82954 5.01981C6.93461 5.04643 7.03244 5.09915 7.11521 5.17375C7.19798 5.24835 7.2634 5.34277 7.30624 5.44945L8.08731 7.35077C8.1383 7.47316 8.15743 7.60817 8.14264 7.74136C8.12785 7.87456 8.0797 8.00091 8.00335 8.10691L7.60645 8.65484C7.52396 8.76857 7.47481 8.90621 7.4653 9.05016C7.45578 9.19412 7.48632 9.33786 7.55302 9.46303C7.93003 10.0614 8.38113 10.6015 8.89383 11.0685C9.44546 11.6401 10.071 12.1227 10.7511 12.5013C10.8752 12.5552 11.0114 12.568 11.1424 12.5383C11.2733 12.5085 11.3931 12.4375 11.4864 12.3342L11.9418 11.8356C12.0285 11.7352 12.1392 11.6627 12.2618 11.6259C12.3844 11.5892 12.5141 11.5897 12.6364 11.6273L14.4937 12.1999C14.5989 12.2322 14.6956 12.2907 14.776 12.3706C14.8564 12.4506 14.9181 12.5498 14.9563 12.6602C14.9944 12.7707 15.0079 12.8892 14.9956 13.0063C14.9833 13.1234 14.9456 13.2357 14.8855 13.3341Z" fill="black"/>
</svg>
