<svg width="24" height="24" viewBox="0 0 24 24" fill="none" xmlns="http://www.w3.org/2000/svg">
<g clip-path="url(#clip0_38_1355)">
<path d="M12 24C18.6274 24 24 18.6274 24 12C24 5.37258 18.6274 0 12 0C5.37258 0 0 5.37258 0 12C0 18.6274 5.37258 24 12 24Z" fill="#F20000"/>
<path d="M17.721 9.11326C17.481 8.368 16.6867 7.92747 15.9494 7.82484C13.321 7.54537 10.6704 7.54537 8.04201 7.82484C7.31095 7.92747 6.51674 8.37432 6.27674 9.11326C5.90254 11.0198 5.90254 12.9809 6.27674 14.8875C6.52306 15.6312 7.31727 16.0733 8.05464 16.1759C10.6831 16.4538 13.3335 16.4538 15.962 16.1759C16.6931 16.0733 17.4873 15.6248 17.7273 14.8875C18.0994 12.9805 18.0972 11.0194 17.721 9.11326ZM10.5667 14.2985V9.70063L14.3104 11.9996C13.0488 12.7748 11.8236 13.5296 10.5667 14.2985Z" fill="white"/>
</g>
<defs>
<clipPath id="clip0_38_1355">
<rect width="24" height="24" fill="white"/>
</clipPath>
</defs>
</svg>
